{
    "asset" : {
        "generator" : "Khronos glTF Blender I/O v1.8.19",
        "version" : "2.0"
    },
    "scene" : 0,
    "scenes" : [
        {
            "name" : "Scene",
            "nodes" : [
                0,
                1
            ]
        }
    ],
    "nodes" : [
        {
            "name" : "WGTS_rig"
        },
        {
            "mesh" : 0,
            "name" : "Cube.001"
        }
    ],
    "materials" : [
        {
            "doubleSided" : true,
            "name" : "Skin",
            "pbrMetallicRoughness" : {
                "baseColorFactor" : [
                    1,
                    0,
                    0.7758220434188843,
                    1
                ],
                "metallicFactor" : 0,
                "roughnessFactor" : 0.5
            }
        }
    ],
    "meshes" : [
        {
            "name" : "Cube.001",
            "primitives" : [
                {
                    "attributes" : {
                        "POSITION" : 0,
                        "NORMAL" : 1,
                        "TEXCOORD_0" : 2
                    },
                    "indices" : 3,
                    "material" : 0
                }
            ]
        }
    ],
    "accessors" : [
        {
            "bufferView" : 0,
            "componentType" : 5126,
            "count" : 1058,
            "max" : [
                0.1239440068602562,
                0.1705869436264038,
                0.10430049896240234
            ],
            "min" : [
                -0.1239440068602562,
                -0.12058484554290771,
                -0.16820821166038513
            ],
            "type" : "VEC3"
        },
        {
            "bufferView" : 1,
            "componentType" : 5126,
            "count" : 1058,
            "type" : "VEC3"
        },
        {
            "bufferView" : 2,
            "componentType" : 5126,
            "count" : 1058,
            "type" : "VEC2"
        },
        {
            "bufferView" : 3,
            "componentType" : 5123,
            "count" : 5916,
            "type" : "SCALAR"
        }
    ],
    "bufferViews" : [
        {
            "buffer" : 0,
            "byteLength" : 12696,
            "byteOffset" : 0
        },
        {
            "buffer" : 0,
            "byteLength" : 12696,
            "byteOffset" : 12696
        },
        {
            "buffer" : 0,
            "byteLength" : 8464,
            "byteOffset" : 25392
        },
        {
            "buffer" : 0,
            "byteLength" : 11832,
            "byteOffset" : 33856
        }
    ],
    "buffers" : [
        {
            "byteLength" : 45688,
            "uri" : "data:application/octet-stream;base64,"
        }
    ]
}
