{
    "asset" : {
        "generator" : "Khronos glTF Blender I/O v1.8.19",
        "version" : "2.0"
    },
    "extensionsUsed" : [
        "KHR_materials_transmission"
    ],
    "scene" : 0,
    "scenes" : [
        {
            "name" : "Scene",
            "nodes" : [
                0,
                1
            ]
        }
    ],
    "nodes" : [
        {
            "name" : "WGTS_rig"
        },
        {
            "mesh" : 0,
            "name" : "Circle.009"
        }
    ],
    "materials" : [
        {
            "doubleSided" : true,
            "name" : "Metal",
            "pbrMetallicRoughness" : {
                "baseColorFactor" : [
                    0.8000000715255737,
                    0.5515713691711426,
                    0.533179759979248,
                    1
                ],
                "roughnessFactor" : 0.5
            }
        },
        {
            "doubleSided" : true,
            "extensions" : {
                "KHR_materials_transmission" : {
                    "transmissionFactor" : 1
                }
            },
            "name" : "Glass",
            "pbrMetallicRoughness" : {
                "metallicFactor" : 0,
                "roughnessFactor" : 0
            }
        }
    ],
    "meshes" : [
        {
            "name" : "Circle.005",
            "primitives" : [
                {
                    "attributes" : {
                        "POSITION" : 0,
                        "NORMAL" : 1,
                        "TEXCOORD_0" : 2
                    },
                    "indices" : 3,
                    "material" : 0
                },
                {
                    "attributes" : {
                        "POSITION" : 4,
                        "NORMAL" : 5,
                        "TEXCOORD_0" : 6
                    },
                    "indices" : 7,
                    "material" : 1
                }
            ]
        }
    ],
    "accessors" : [
        {
            "bufferView" : 0,
            "componentType" : 5126,
            "count" : 639,
            "max" : [
                0.11381883174180984,
                0.03914465755224228,
                0.0023998243268579245
            ],
            "min" : [
                -0.1097283810377121,
                -0.04658960551023483,
                -0.1575014293193817
            ],
            "type" : "VEC3"
        },
        {
            "bufferView" : 1,
            "componentType" : 5126,
            "count" : 639,
            "type" : "VEC3"
        },
        {
            "bufferView" : 2,
            "componentType" : 5126,
            "count" : 639,
            "type" : "VEC2"
        },
        {
            "bufferView" : 3,
            "componentType" : 5123,
            "count" : 3168,
            "type" : "SCALAR"
        },
        {
            "bufferView" : 4,
            "componentType" : 5126,
            "count" : 288,
            "max" : [
                0.08799484372138977,
                0.03674502670764923,
                0.0017318701138719916
            ],
            "min" : [
                -0.08390438556671143,
                -0.036745332181453705,
                -0.00103818962816149
            ],
            "type" : "VEC3"
        },
        {
            "bufferView" : 5,
            "componentType" : 5126,
            "count" : 288,
            "type" : "VEC3"
        },
        {
            "bufferView" : 6,
            "componentType" : 5126,
            "count" : 288,
            "type" : "VEC2"
        },
        {
            "bufferView" : 7,
            "componentType" : 5123,
            "count" : 552,
            "type" : "SCALAR"
        }
    ],
    "bufferViews" : [
        {
            "buffer" : 0,
            "byteLength" : 7668,
            "byteOffset" : 0
        },
        {
            "buffer" : 0,
            "byteLength" : 7668,
            "byteOffset" : 7668
        },
        {
            "buffer" : 0,
            "byteLength" : 5112,
            "byteOffset" : 15336
        },
        {
            "buffer" : 0,
            "byteLength" : 6336,
            "byteOffset" : 20448
        },
        {
            "buffer" : 0,
            "byteLength" : 3456,
            "byteOffset" : 26784
        },
        {
            "buffer" : 0,
            "byteLength" : 3456,
            "byteOffset" : 30240
        },
        {
            "buffer" : 0,
            "byteLength" : 2304,
            "byteOffset" : 33696
        },
        {
            "buffer" : 0,
            "byteLength" : 1104,
            "byteOffset" : 36000
        }
    ],
    "buffers" : [
        {
            "byteLength" : 37104,
            "uri" : "data:application/octet-stream;base64,"
        }
    ]
}
